<svg width="64" height="64" viewBox="0 0 64 64" fill="none" xmlns="http://www.w3.org/2000/svg">
<g clip-path="url(#clip0_1481_3996)">
<path d="M64 0H0V64H64V0Z" fill="#A5BF3C"/>
<path d="M43.09 48L52 55V18C52 17.4696 51.7893 16.9609 51.4142 16.5858C51.0391 16.2107 50.5304 16 50 16L14 16C13.4696 16 12.9609 16.2107 12.5858 16.5858C12.2107 16.9609 12 17.4696 12 18V46C12 46.5304 12.2107 47.0391 12.5858 47.4142C12.9609 47.7893 13.4696 48 14 48H43.09ZM42 30C42 32.6522 40.9464 35.1957 39.0711 37.0711C37.1957 38.9464 34.6522 40 32 40C29.3478 40 26.8043 38.9464 24.9289 37.0711C23.0536 35.1957 22 32.6522 22 30H26C26 31.5913 26.6321 33.1174 27.7574 34.2426C28.8826 35.3679 30.4087 36 32 36C33.5913 36 35.1174 35.3679 36.2426 34.2426C37.3679 33.1174 38 31.5913 38 30H42Z" fill="#003300"/>
<path d="M42 30C42 32.6522 40.9464 35.1957 39.0711 37.0711C37.1957 38.9464 34.6522 40 32 40C29.3478 40 26.8043 38.9464 24.9289 37.0711C23.0536 35.1957 22 32.6522 22 30H26C26 31.5913 26.6321 33.1174 27.7574 34.2426C28.8826 35.3679 30.4087 36 32 36C33.5913 36 35.1174 35.3679 36.2426 34.2426C37.3679 33.1174 38 31.5913 38 30H42Z" fill="white" fill-opacity="0.5"/>
</g>
<defs>
<clipPath id="clip0_1481_3996">
<rect width="64" height="64" fill="white"/>
</clipPath>
</defs>
</svg>
